<?xml version="1.0" encoding="UTF-8" ?>
<svg version="1.1" width="16" height="10" xmlns="http://www.w3.org/2000/svg" shape-rendering="crispEdges">
<rect x="2" y="4" width="1" height="1" fill="#DF7126" />
<rect x="3" y="4" width="1" height="1" fill="#DF7126" />
<rect x="5" y="4" width="1" height="1" fill="#DF7126" />
<rect x="6" y="4" width="1" height="1" fill="#DF7126" />
<rect x="8" y="4" width="1" height="1" fill="#DF7126" />
<rect x="9" y="4" width="1" height="1" fill="#DF7126" />
<rect x="11" y="4" width="1" height="1" fill="#DF7126" />
<rect x="12" y="4" width="1" height="1" fill="#DF7126" />
<rect x="2" y="5" width="1" height="1" fill="#DF7126" />
<rect x="3" y="5" width="1" height="1" fill="#DF7126" />
<rect x="5" y="5" width="1" height="1" fill="#DF7126" />
<rect x="6" y="5" width="1" height="1" fill="#DF7126" />
<rect x="8" y="5" width="1" height="1" fill="#DF7126" />
<rect x="9" y="5" width="1" height="1" fill="#DF7126" />
<rect x="11" y="5" width="1" height="1" fill="#DF7126" />
<rect x="12" y="5" width="1" height="1" fill="#DF7126" />
</svg>