<?xml version="1.0" encoding="UTF-8" ?>
<svg version="1.1" width="16" height="10" xmlns="http://www.w3.org/2000/svg" shape-rendering="crispEdges">
<rect x="1" y="1" width="1" height="1" fill="#DF7126" />
<rect x="2" y="1" width="1" height="1" fill="#DF7126" />
<rect x="4" y="1" width="1" height="1" fill="#DF7126" />
<rect x="5" y="1" width="1" height="1" fill="#DF7126" />
<rect x="7" y="1" width="1" height="1" fill="#DF7126" />
<rect x="8" y="1" width="1" height="1" fill="#DF7126" />
<rect x="10" y="1" width="1" height="1" fill="#DF7126" />
<rect x="11" y="1" width="1" height="1" fill="#DF7126" />
<rect x="13" y="1" width="1" height="1" fill="#DF7126" />
<rect x="14" y="1" width="1" height="1" fill="#DF7126" />
<rect x="1" y="2" width="1" height="1" fill="#DF7126" />
<rect x="2" y="2" width="1" height="1" fill="#DF7126" />
<rect x="4" y="2" width="1" height="1" fill="#DF7126" />
<rect x="5" y="2" width="1" height="1" fill="#DF7126" />
<rect x="7" y="2" width="1" height="1" fill="#DF7126" />
<rect x="8" y="2" width="1" height="1" fill="#DF7126" />
<rect x="10" y="2" width="1" height="1" fill="#DF7126" />
<rect x="11" y="2" width="1" height="1" fill="#DF7126" />
<rect x="13" y="2" width="1" height="1" fill="#DF7126" />
<rect x="14" y="2" width="1" height="1" fill="#DF7126" />
<rect x="4" y="4" width="1" height="1" fill="#DF7126" />
<rect x="5" y="4" width="1" height="1" fill="#DF7126" />
<rect x="10" y="4" width="1" height="1" fill="#DF7126" />
<rect x="11" y="4" width="1" height="1" fill="#DF7126" />
<rect x="4" y="5" width="1" height="1" fill="#DF7126" />
<rect x="5" y="5" width="1" height="1" fill="#DF7126" />
<rect x="10" y="5" width="1" height="1" fill="#DF7126" />
<rect x="11" y="5" width="1" height="1" fill="#DF7126" />
<rect x="7" y="7" width="1" height="1" fill="#DF7126" />
<rect x="8" y="7" width="1" height="1" fill="#DF7126" />
<rect x="7" y="8" width="1" height="1" fill="#DF7126" />
<rect x="8" y="8" width="1" height="1" fill="#DF7126" />
</svg>